<svg width="13" height="13" viewBox="0 0 13 13" fill="none" xmlns="http://www.w3.org/2000/svg">
<path fill-rule="evenodd" clip-rule="evenodd" d="M6.85513 12.1841C6.63427 12.3068 6.36573 12.3068 6.14487 12.1841L1.59487 9.65632C1.36273 9.52735 1.21875 9.28266 1.21875 9.0171L1.21874 3.98289C1.21874 3.71732 1.36272 3.47263 1.59486 3.34366L6.14487 0.815885C6.36573 0.693189 6.63427 0.693188 6.85513 0.815886L11.4051 3.34366C11.6373 3.47263 11.7812 3.71732 11.7812 3.98289L11.7812 9.01709C11.7813 9.28266 11.6373 9.52735 11.4051 9.65632L6.85513 12.1841ZM6.5 11.4519L10.9687 8.96929L10.9687 4.0307L6.5 1.54806L2.03124 4.0307L2.03125 8.96929L6.5 11.4519Z" fill="#F5F5F5" style="fill:#F5F5F5;fill:color(display-p3 0.9608 0.9608 0.9608);fill-opacity:1;"/>
<path fill-rule="evenodd" clip-rule="evenodd" d="M11.4593 3.74483C11.3503 3.5487 11.103 3.47803 10.9069 3.58699L6.50002 6.03526L2.10854 3.59555C1.91241 3.48659 1.66508 3.55726 1.55612 3.75339C1.44716 3.94952 1.51782 4.19684 1.71395 4.30581L6.14489 6.76743C6.36575 6.89013 6.63429 6.89013 6.85514 6.76743L11.3015 4.29725C11.4976 4.18829 11.5683 3.94096 11.4593 3.74483Z" fill="#F5F5F5" style="fill:#F5F5F5;fill:color(display-p3 0.9608 0.9608 0.9608);fill-opacity:1;"/>
<path fill-rule="evenodd" clip-rule="evenodd" d="M6.5 11.7812C6.27563 11.7812 6.09375 11.5994 6.09375 11.375L6.09375 6.5C6.09375 6.27563 6.27563 6.09375 6.5 6.09375C6.72437 6.09375 6.90625 6.27563 6.90625 6.5L6.90625 11.375C6.90625 11.5994 6.72437 11.7812 6.5 11.7812Z" fill="#F5F5F5" style="fill:#F5F5F5;fill:color(display-p3 0.9608 0.9608 0.9608);fill-opacity:1;"/>
<path d="M6.33283 6.40713L2.10783 4.05991C1.89121 3.93956 1.625 4.0962 1.625 4.34401V9.0171C1.625 9.13513 1.68899 9.24388 1.79217 9.3012L6.01717 11.6484C6.23379 11.7688 6.5 11.6121 6.5 11.3643V6.69123C6.5 6.5732 6.43601 6.46445 6.33283 6.40713Z" fill="#F5F5F5" style="fill:#F5F5F5;fill:color(display-p3 0.9608 0.9608 0.9608);fill-opacity:1;"/>
<path fill-rule="evenodd" clip-rule="evenodd" d="M1.21875 4.34401C1.21875 3.78644 1.81773 3.43401 2.30513 3.70478L6.53013 6.05201C6.76227 6.18098 6.90625 6.42567 6.90625 6.69123V11.3643C6.90625 11.9219 6.30727 12.2743 5.81987 12.0036L1.59487 9.65633C1.36273 9.52736 1.21875 9.28267 1.21875 9.01711V4.34401ZM2.03125 4.4821V8.9693L6.09375 11.2262V6.73904L2.03125 4.4821ZM6.21446 11.2933L6.21428 11.2932Z" fill="#F5F5F5" style="fill:#F5F5F5;fill:color(display-p3 0.9608 0.9608 0.9608);fill-opacity:1;"/>
</svg>
