<svg width="20" height="18" viewBox="0 0 20 18" fill="none" xmlns="http://www.w3.org/2000/svg">
<path d="M6.66667 14.25C7.58714 14.25 8.33333 13.5784 8.33333 12.75C8.33333 11.9216 7.58714 11.25 6.66667 11.25C5.74619 11.25 5 11.9216 5 12.75C5 13.5784 5.74619 14.25 6.66667 14.25Z" stroke="white" style="stroke:white;stroke-opacity:1;" stroke-width="1.5" stroke-miterlimit="1.5" stroke-linecap="round" stroke-linejoin="round"/>
<path d="M14.9999 14.25C15.9204 14.25 16.6666 13.5784 16.6666 12.75C16.6666 11.9216 15.9204 11.25 14.9999 11.25C14.0794 11.25 13.3333 11.9216 13.3333 12.75C13.3333 13.5784 14.0794 14.25 14.9999 14.25Z" stroke="white" style="stroke:white;stroke-opacity:1;" stroke-width="1.5" stroke-miterlimit="1.5" stroke-linecap="round" stroke-linejoin="round"/>
<path d="M8.37492 12.75H12.4999V5.1C12.4999 4.76863 12.2313 4.5 11.8999 4.5H0.833252" stroke="white" style="stroke:white;stroke-opacity:1;" stroke-width="1.5" stroke-linecap="round"/>
<path d="M4.70833 12.75H3.1C2.76863 12.75 2.5 12.4814 2.5 12.15V8.625" stroke="white" style="stroke:white;stroke-opacity:1;" stroke-width="1.5" stroke-linecap="round"/>
<path d="M1.66675 6.75L5.00008 6.75" stroke="white" style="stroke:white;stroke-opacity:1;" stroke-width="1.5" stroke-linecap="round" stroke-linejoin="round"/>
<path d="M12.5 6.75H17.1271C17.3555 6.75 17.564 6.8796 17.6651 7.08433L19.1046 9.99941C19.1454 10.082 19.1667 10.1729 19.1667 10.2651V12.15C19.1667 12.4814 18.898 12.75 18.5667 12.75H17.0833" stroke="white" style="stroke:white;stroke-opacity:1;" stroke-width="1.5" stroke-linecap="round"/>
<path d="M12.5 12.75H13.3333" stroke="white" style="stroke:white;stroke-opacity:1;" stroke-width="1.5" stroke-linecap="round"/>
</svg>
